# xmcd
#
# Track frame offsets: 
#        150
#        14727
#        26271
#        47621
#        59528
#        74251
#        92416
#        115296
#        126068
#        148861
#        164071
#        184546
#        198598
#        209208
#        221135
#        241649
#        253547
#
# Disc length: 3653 seconds
#
# Revision: 0
# Processed by: cddbd v1.5.2PL0 Copyright (c) Steve Scherf et al.
# Submitted via: ExactAudioCopy v1.0b2
#
DISCID=020e4311
DTITLE=Leo Boni - Sogno Toscano
DYEAR=2011
DGENRE=Blues
TTITLE0=Bossa Dorado
TTITLE1=Titina's theme
TTITLE2=Don't let the sun catch you crying
TTITLE3=La Miccia
TTITLE4=L'elefante
TTITLE5=Sandman
TTITLE6=Toscana
TTITLE7=Ribollita
TTITLE8=It's only a Paper moon
TTITLE9=Poesia in bicicletta (feat. Carlo Monni)
TTITLE10=Nature boy
TTITLE11=Del fannullone
TTITLE12=Kiss of fire
TTITLE13=Sinking in the sink
TTITLE14=Manoir de mes revec
TTITLE15=A zonzo
TTITLE16=Whispering night
EXTD=
EXTT0=
EXTT1=
EXTT2=
EXTT3=
EXTT4=
EXTT5=
EXTT6=
EXTT7=
EXTT8=
EXTT9=
EXTT10=
EXTT11=
EXTT12=
EXTT13=
EXTT14=
EXTT15=
EXTT16=
PLAYORDER=
